<?xml version="1.0" encoding="UTF-8"?>
<!DOCTYPE svg PUBLIC "-//W3C//DTD SVG 1.1//EN" "http://www.w3.org/Graphics/SVG/1.1/DTD/svg11.dtd">
<svg xmlns="http://www.w3.org/2000/svg" version="1.1" width="1024px" height="1024px" style="shape-rendering:geometricPrecision; text-rendering:geometricPrecision; image-rendering:optimizeQuality; fill-rule:evenodd; clip-rule:evenodd" xmlns:xlink="http://www.w3.org/1999/xlink">
<g><path style="opacity:0.986" fill="#0f44c7" d="M 489.5,3.5 C 657.793,0.375913 796.293,62.3759 905,189.5C 1000.01,310.202 1035.68,446.868 1012,599.5C 1004.38,642.349 991.549,683.515 973.5,723C 964.173,723.5 954.839,723.666 945.5,723.5C 945.667,668.832 945.5,614.166 945,559.5C 919.047,595.945 892.547,631.945 865.5,667.5C 864.667,631.838 864.167,596.171 864,560.5C 838.381,596.612 812.214,632.278 785.5,667.5C 784.5,632.84 784.167,598.173 784.5,563.5C 768.819,563.167 753.152,563.501 737.5,564.5C 735.166,575.834 732.833,587.168 730.5,598.5C 737.833,598.5 745.167,598.5 752.5,598.5C 752.333,652.501 752.5,706.501 753,760.5C 779.333,724.5 805.667,688.5 832,652.5C 832.333,688.5 832.667,724.5 833,760.5C 859.333,724.5 885.667,688.5 912,652.5C 912.5,688.165 912.667,723.832 912.5,759.5C 926.516,759.167 940.516,759.501 954.5,760.5C 877.689,892.071 764.689,974.905 615.5,1009C 445.871,1039.94 296.538,998.937 167.5,886C 49.8928,773.202 -4.27389,635.035 5,471.5C 18.7231,328.203 80.2231,210.37 189.5,118C 277.024,47.8696 377.024,9.70296 489.5,3.5 Z M 371.5,165.5 C 497.696,161.857 598.862,209.857 675,309.5C 727.967,385.037 748.467,468.704 736.5,560.5C 721.167,560.5 705.833,560.5 690.5,560.5C 705.008,445.473 668.341,350.639 580.5,276C 500.326,215.631 411.326,197.631 313.5,222C 285.202,229.7 258.868,241.534 234.5,257.5C 242.473,270.791 250.806,283.791 259.5,296.5C 329.199,255.182 402.532,247.348 479.5,273C 564.046,306.552 617.879,367.385 641,455.5C 648.929,490.41 649.429,525.41 642.5,560.5C 613.833,560.5 585.167,560.5 556.5,560.5C 556.833,511.162 556.5,461.829 555.5,412.5C 528.807,448.693 502.307,485.027 476,521.5C 475.667,485.167 475.333,448.833 475,412.5C 449.053,448.781 422.72,484.781 396,520.5C 395.667,457.833 395.333,395.167 395,332.5C 359.25,389.669 323.25,446.669 287,503.5C 286.833,446.497 286.333,389.497 285.5,332.5C 224.531,428.634 163.364,524.634 102,620.5C 101.429,624.045 102.096,627.378 104,630.5C 108.237,641.214 113.237,651.547 119,661.5C 119.414,661.957 119.914,662.291 120.5,662.5C 163.197,596.301 205.697,529.967 248,463.5C 248.333,517.833 248.667,572.167 249,626.5C 285.583,569.002 321.917,511.335 358,453.5C 358.333,510.833 358.667,568.167 359,625.5C 385.333,589.833 411.667,554.167 438,518.5C 438.167,554.171 438.667,589.838 439.5,625.5C 465.667,589.833 491.833,554.167 518,518.5C 518.5,546.165 518.667,573.831 518.5,601.5C 555.835,601.333 593.168,601.5 630.5,602C 604.247,667.587 558.914,714.92 494.5,744C 413.266,776.574 334.932,770.741 259.5,726.5C 250.507,739.518 242.34,752.851 235,766.5C 309.629,811.02 389.129,822.52 473.5,801C 562.208,774.624 626.708,719.79 667,636.5C 671.897,625.141 676.397,613.641 680.5,602C 696.163,601.5 711.83,601.333 727.5,601.5C 700.675,695.358 645.009,766.525 560.5,815C 470.897,862.217 377.897,870.217 281.5,839C 185.66,803.827 116.826,739.66 75,646.5C 34.1162,543.875 39.1162,443.541 90,345.5C 153.102,238.001 246.935,178.001 371.5,165.5 Z"/></g>
</svg>
